<mxfile host="app.diagrams.net" modified="2022-12-05T14:51:30.658Z" agent="5.0 (Windows NT 10.0; Win64; x64) AppleWebKit/537.36 (KHTML, like Gecko) Chrome/103.0.0.0 Safari/537.36" version="20.6.0" etag="3zYd9jEnrte5J91rSmhi" type="github">
  <diagram id="UtBNNFAy3XQwGLpw8mRw" name="PÃ¡gina-1">
    <mxGraphModel dx="1038" dy="539" grid="1" gridSize="10" guides="1" tooltips="1" connect="1" arrows="1" fold="1" page="1" pageScale="1" pageWidth="827" pageHeight="1169" math="0" shadow="0">
      <root>
        <mxCell id="0" />
        <mxCell id="1" parent="0" />
        <mxCell id="O3Fq_bBczwcsNeZgr58u-1" value="Xadrez" style="shape=table;startSize=30;container=1;collapsible=1;childLayout=tableLayout;fixedRows=1;rowLines=0;fontStyle=1;align=center;resizeLast=1;fillColor=#d0cee2;strokeColor=#56517e;fontFamily=Times New Roman;fontSize=15;" vertex="1" parent="1">
          <mxGeometry x="520" y="90" width="180" height="220" as="geometry" />
        </mxCell>
        <mxCell id="O3Fq_bBczwcsNeZgr58u-2" value="" style="shape=tableRow;horizontal=0;startSize=0;swimlaneHead=0;swimlaneBody=0;fillColor=none;collapsible=0;dropTarget=0;points=[[0,0.5],[1,0.5]];portConstraint=eastwest;top=0;left=0;right=0;bottom=1;" vertex="1" parent="O3Fq_bBczwcsNeZgr58u-1">
          <mxGeometry y="30" width="180" height="30" as="geometry" />
        </mxCell>
        <mxCell id="O3Fq_bBczwcsNeZgr58u-3" value="PK" style="shape=partialRectangle;connectable=0;fillColor=none;top=0;left=0;bottom=0;right=0;fontStyle=1;overflow=hidden;" vertex="1" parent="O3Fq_bBczwcsNeZgr58u-2">
          <mxGeometry width="30" height="30" as="geometry">
            <mxRectangle width="30" height="30" as="alternateBounds" />
          </mxGeometry>
        </mxCell>
        <mxCell id="O3Fq_bBczwcsNeZgr58u-4" value="Id" style="shape=partialRectangle;connectable=0;fillColor=none;top=0;left=0;bottom=0;right=0;align=left;spacingLeft=6;fontStyle=5;overflow=hidden;" vertex="1" parent="O3Fq_bBczwcsNeZgr58u-2">
          <mxGeometry x="30" width="150" height="30" as="geometry">
            <mxRectangle width="150" height="30" as="alternateBounds" />
          </mxGeometry>
        </mxCell>
        <mxCell id="O3Fq_bBczwcsNeZgr58u-5" value="" style="shape=tableRow;horizontal=0;startSize=0;swimlaneHead=0;swimlaneBody=0;fillColor=none;collapsible=0;dropTarget=0;points=[[0,0.5],[1,0.5]];portConstraint=eastwest;top=0;left=0;right=0;bottom=0;" vertex="1" parent="O3Fq_bBczwcsNeZgr58u-1">
          <mxGeometry y="60" width="180" height="30" as="geometry" />
        </mxCell>
        <mxCell id="O3Fq_bBczwcsNeZgr58u-6" value="" style="shape=partialRectangle;connectable=0;fillColor=none;top=0;left=0;bottom=0;right=0;editable=1;overflow=hidden;" vertex="1" parent="O3Fq_bBczwcsNeZgr58u-5">
          <mxGeometry width="30" height="30" as="geometry">
            <mxRectangle width="30" height="30" as="alternateBounds" />
          </mxGeometry>
        </mxCell>
        <mxCell id="O3Fq_bBczwcsNeZgr58u-7" value="Data/Hora" style="shape=partialRectangle;connectable=0;fillColor=none;top=0;left=0;bottom=0;right=0;align=left;spacingLeft=6;overflow=hidden;" vertex="1" parent="O3Fq_bBczwcsNeZgr58u-5">
          <mxGeometry x="30" width="150" height="30" as="geometry">
            <mxRectangle width="150" height="30" as="alternateBounds" />
          </mxGeometry>
        </mxCell>
        <mxCell id="O3Fq_bBczwcsNeZgr58u-8" value="" style="shape=tableRow;horizontal=0;startSize=0;swimlaneHead=0;swimlaneBody=0;fillColor=none;collapsible=0;dropTarget=0;points=[[0,0.5],[1,0.5]];portConstraint=eastwest;top=0;left=0;right=0;bottom=0;" vertex="1" parent="O3Fq_bBczwcsNeZgr58u-1">
          <mxGeometry y="90" width="180" height="30" as="geometry" />
        </mxCell>
        <mxCell id="O3Fq_bBczwcsNeZgr58u-9" value="" style="shape=partialRectangle;connectable=0;fillColor=none;top=0;left=0;bottom=0;right=0;editable=1;overflow=hidden;" vertex="1" parent="O3Fq_bBczwcsNeZgr58u-8">
          <mxGeometry width="30" height="30" as="geometry">
            <mxRectangle width="30" height="30" as="alternateBounds" />
          </mxGeometry>
        </mxCell>
        <mxCell id="O3Fq_bBczwcsNeZgr58u-10" value="Nivel" style="shape=partialRectangle;connectable=0;fillColor=none;top=0;left=0;bottom=0;right=0;align=left;spacingLeft=6;overflow=hidden;" vertex="1" parent="O3Fq_bBczwcsNeZgr58u-8">
          <mxGeometry x="30" width="150" height="30" as="geometry">
            <mxRectangle width="150" height="30" as="alternateBounds" />
          </mxGeometry>
        </mxCell>
        <mxCell id="O3Fq_bBczwcsNeZgr58u-11" value="" style="shape=tableRow;horizontal=0;startSize=0;swimlaneHead=0;swimlaneBody=0;fillColor=none;collapsible=0;dropTarget=0;points=[[0,0.5],[1,0.5]];portConstraint=eastwest;top=0;left=0;right=0;bottom=0;" vertex="1" parent="O3Fq_bBczwcsNeZgr58u-1">
          <mxGeometry y="120" width="180" height="100" as="geometry" />
        </mxCell>
        <mxCell id="O3Fq_bBczwcsNeZgr58u-12" value="" style="shape=partialRectangle;connectable=0;fillColor=none;top=0;left=0;bottom=0;right=0;editable=1;overflow=hidden;" vertex="1" parent="O3Fq_bBczwcsNeZgr58u-11">
          <mxGeometry width="30" height="100" as="geometry">
            <mxRectangle width="30" height="100" as="alternateBounds" />
          </mxGeometry>
        </mxCell>
        <mxCell id="O3Fq_bBczwcsNeZgr58u-13" value="" style="shape=partialRectangle;connectable=0;fillColor=none;top=0;left=0;bottom=0;right=0;align=left;spacingLeft=6;overflow=hidden;" vertex="1" parent="O3Fq_bBczwcsNeZgr58u-11">
          <mxGeometry x="30" width="150" height="100" as="geometry">
            <mxRectangle width="150" height="100" as="alternateBounds" />
          </mxGeometry>
        </mxCell>
        <mxCell id="O3Fq_bBczwcsNeZgr58u-14" value="Jogador" style="shape=table;startSize=30;container=1;collapsible=1;childLayout=tableLayout;fixedRows=1;rowLines=0;fontStyle=1;align=center;resizeLast=1;fillColor=#d0cee2;strokeColor=#56517e;fontFamily=Times New Roman;fontSize=15;" vertex="1" parent="1">
          <mxGeometry x="90" y="130" width="180" height="150" as="geometry" />
        </mxCell>
        <mxCell id="O3Fq_bBczwcsNeZgr58u-15" value="" style="shape=tableRow;horizontal=0;startSize=0;swimlaneHead=0;swimlaneBody=0;fillColor=none;collapsible=0;dropTarget=0;points=[[0,0.5],[1,0.5]];portConstraint=eastwest;top=0;left=0;right=0;bottom=1;" vertex="1" parent="O3Fq_bBczwcsNeZgr58u-14">
          <mxGeometry y="30" width="180" height="30" as="geometry" />
        </mxCell>
        <mxCell id="O3Fq_bBczwcsNeZgr58u-16" value="PK" style="shape=partialRectangle;connectable=0;fillColor=none;top=0;left=0;bottom=0;right=0;fontStyle=1;overflow=hidden;" vertex="1" parent="O3Fq_bBczwcsNeZgr58u-15">
          <mxGeometry width="30" height="30" as="geometry">
            <mxRectangle width="30" height="30" as="alternateBounds" />
          </mxGeometry>
        </mxCell>
        <mxCell id="O3Fq_bBczwcsNeZgr58u-17" value="Id" style="shape=partialRectangle;connectable=0;fillColor=none;top=0;left=0;bottom=0;right=0;align=left;spacingLeft=6;fontStyle=5;overflow=hidden;" vertex="1" parent="O3Fq_bBczwcsNeZgr58u-15">
          <mxGeometry x="30" width="150" height="30" as="geometry">
            <mxRectangle width="150" height="30" as="alternateBounds" />
          </mxGeometry>
        </mxCell>
        <mxCell id="O3Fq_bBczwcsNeZgr58u-18" value="" style="shape=tableRow;horizontal=0;startSize=0;swimlaneHead=0;swimlaneBody=0;fillColor=none;collapsible=0;dropTarget=0;points=[[0,0.5],[1,0.5]];portConstraint=eastwest;top=0;left=0;right=0;bottom=0;" vertex="1" parent="O3Fq_bBczwcsNeZgr58u-14">
          <mxGeometry y="60" width="180" height="30" as="geometry" />
        </mxCell>
        <mxCell id="O3Fq_bBczwcsNeZgr58u-19" value="" style="shape=partialRectangle;connectable=0;fillColor=none;top=0;left=0;bottom=0;right=0;editable=1;overflow=hidden;" vertex="1" parent="O3Fq_bBczwcsNeZgr58u-18">
          <mxGeometry width="30" height="30" as="geometry">
            <mxRectangle width="30" height="30" as="alternateBounds" />
          </mxGeometry>
        </mxCell>
        <mxCell id="O3Fq_bBczwcsNeZgr58u-20" value="Nome" style="shape=partialRectangle;connectable=0;fillColor=none;top=0;left=0;bottom=0;right=0;align=left;spacingLeft=6;overflow=hidden;" vertex="1" parent="O3Fq_bBczwcsNeZgr58u-18">
          <mxGeometry x="30" width="150" height="30" as="geometry">
            <mxRectangle width="150" height="30" as="alternateBounds" />
          </mxGeometry>
        </mxCell>
        <mxCell id="O3Fq_bBczwcsNeZgr58u-21" value="" style="shape=tableRow;horizontal=0;startSize=0;swimlaneHead=0;swimlaneBody=0;fillColor=none;collapsible=0;dropTarget=0;points=[[0,0.5],[1,0.5]];portConstraint=eastwest;top=0;left=0;right=0;bottom=0;" vertex="1" parent="O3Fq_bBczwcsNeZgr58u-14">
          <mxGeometry y="90" width="180" height="30" as="geometry" />
        </mxCell>
        <mxCell id="O3Fq_bBczwcsNeZgr58u-22" value="" style="shape=partialRectangle;connectable=0;fillColor=none;top=0;left=0;bottom=0;right=0;editable=1;overflow=hidden;" vertex="1" parent="O3Fq_bBczwcsNeZgr58u-21">
          <mxGeometry width="30" height="30" as="geometry">
            <mxRectangle width="30" height="30" as="alternateBounds" />
          </mxGeometry>
        </mxCell>
        <mxCell id="O3Fq_bBczwcsNeZgr58u-23" value="DataNascimento" style="shape=partialRectangle;connectable=0;fillColor=none;top=0;left=0;bottom=0;right=0;align=left;spacingLeft=6;overflow=hidden;" vertex="1" parent="O3Fq_bBczwcsNeZgr58u-21">
          <mxGeometry x="30" width="150" height="30" as="geometry">
            <mxRectangle width="150" height="30" as="alternateBounds" />
          </mxGeometry>
        </mxCell>
        <mxCell id="O3Fq_bBczwcsNeZgr58u-24" value="" style="shape=tableRow;horizontal=0;startSize=0;swimlaneHead=0;swimlaneBody=0;fillColor=none;collapsible=0;dropTarget=0;points=[[0,0.5],[1,0.5]];portConstraint=eastwest;top=0;left=0;right=0;bottom=0;" vertex="1" parent="O3Fq_bBczwcsNeZgr58u-14">
          <mxGeometry y="120" width="180" height="30" as="geometry" />
        </mxCell>
        <mxCell id="O3Fq_bBczwcsNeZgr58u-25" value="" style="shape=partialRectangle;connectable=0;fillColor=none;top=0;left=0;bottom=0;right=0;editable=1;overflow=hidden;" vertex="1" parent="O3Fq_bBczwcsNeZgr58u-24">
          <mxGeometry width="30" height="30" as="geometry">
            <mxRectangle width="30" height="30" as="alternateBounds" />
          </mxGeometry>
        </mxCell>
        <mxCell id="O3Fq_bBczwcsNeZgr58u-26" value="" style="shape=partialRectangle;connectable=0;fillColor=none;top=0;left=0;bottom=0;right=0;align=left;spacingLeft=6;overflow=hidden;" vertex="1" parent="O3Fq_bBczwcsNeZgr58u-24">
          <mxGeometry x="30" width="150" height="30" as="geometry">
            <mxRectangle width="150" height="30" as="alternateBounds" />
          </mxGeometry>
        </mxCell>
        <mxCell id="O3Fq_bBczwcsNeZgr58u-27" value="&lt;h4&gt;&lt;font style=&quot;font-size: 15px;&quot; face=&quot;Times New Roman&quot;&gt;EXERC 1&lt;/font&gt;&lt;/h4&gt;" style="text;html=1;strokeColor=none;fillColor=none;align=center;verticalAlign=middle;whiteSpace=wrap;rounded=0;" vertex="1" parent="1">
          <mxGeometry x="10" y="10" width="70" height="40" as="geometry" />
        </mxCell>
        <mxCell id="O3Fq_bBczwcsNeZgr58u-29" style="edgeStyle=orthogonalEdgeStyle;rounded=0;orthogonalLoop=1;jettySize=auto;html=1;entryX=0;entryY=0.5;entryDx=0;entryDy=0;fontFamily=Times New Roman;fontSize=15;" edge="1" parent="1" source="O3Fq_bBczwcsNeZgr58u-15" target="O3Fq_bBczwcsNeZgr58u-2">
          <mxGeometry relative="1" as="geometry" />
        </mxCell>
        <mxCell id="O3Fq_bBczwcsNeZgr58u-31" value="0..1" style="edgeLabel;html=1;align=center;verticalAlign=middle;resizable=0;points=[];fontSize=15;fontFamily=Times New Roman;" vertex="1" connectable="0" parent="O3Fq_bBczwcsNeZgr58u-29">
          <mxGeometry x="-0.7873" y="1" relative="1" as="geometry">
            <mxPoint as="offset" />
          </mxGeometry>
        </mxCell>
        <mxCell id="O3Fq_bBczwcsNeZgr58u-33" value="0..*" style="edgeLabel;html=1;align=center;verticalAlign=middle;resizable=0;points=[];fontSize=15;fontFamily=Times New Roman;" vertex="1" connectable="0" parent="O3Fq_bBczwcsNeZgr58u-29">
          <mxGeometry x="0.7491" y="-2" relative="1" as="geometry">
            <mxPoint x="-5" y="-2" as="offset" />
          </mxGeometry>
        </mxCell>
        <mxCell id="O3Fq_bBczwcsNeZgr58u-30" style="edgeStyle=orthogonalEdgeStyle;rounded=0;orthogonalLoop=1;jettySize=auto;html=1;entryX=0;entryY=0.5;entryDx=0;entryDy=0;fontFamily=Times New Roman;fontSize=15;" edge="1" parent="1" source="O3Fq_bBczwcsNeZgr58u-21" target="O3Fq_bBczwcsNeZgr58u-8">
          <mxGeometry relative="1" as="geometry" />
        </mxCell>
        <mxCell id="O3Fq_bBczwcsNeZgr58u-32" value="0..1" style="edgeLabel;html=1;align=center;verticalAlign=middle;resizable=0;points=[];fontSize=15;fontFamily=Times New Roman;" vertex="1" connectable="0" parent="O3Fq_bBczwcsNeZgr58u-30">
          <mxGeometry x="-0.7964" y="2" relative="1" as="geometry">
            <mxPoint x="2" as="offset" />
          </mxGeometry>
        </mxCell>
        <mxCell id="O3Fq_bBczwcsNeZgr58u-35" value="0..*" style="edgeLabel;html=1;align=center;verticalAlign=middle;resizable=0;points=[];fontSize=15;fontFamily=Times New Roman;" vertex="1" connectable="0" parent="O3Fq_bBczwcsNeZgr58u-30">
          <mxGeometry x="0.6945" y="1" relative="1" as="geometry">
            <mxPoint as="offset" />
          </mxGeometry>
        </mxCell>
        <mxCell id="O3Fq_bBczwcsNeZgr58u-34" value="Duracao" style="shape=partialRectangle;connectable=0;fillColor=none;top=0;left=0;bottom=0;right=0;align=left;spacingLeft=6;overflow=hidden;" vertex="1" parent="1">
          <mxGeometry x="550" y="210" width="150" height="30" as="geometry">
            <mxRectangle width="150" height="30" as="alternateBounds" />
          </mxGeometry>
        </mxCell>
        <mxCell id="O3Fq_bBczwcsNeZgr58u-36" value="IdJogador1" style="shape=partialRectangle;connectable=0;fillColor=none;top=0;left=0;bottom=0;right=0;align=left;spacingLeft=6;overflow=hidden;" vertex="1" parent="1">
          <mxGeometry x="550" y="240" width="150" height="30" as="geometry">
            <mxRectangle width="150" height="30" as="alternateBounds" />
          </mxGeometry>
        </mxCell>
        <mxCell id="O3Fq_bBczwcsNeZgr58u-37" value="IdJogador2" style="shape=partialRectangle;connectable=0;fillColor=none;top=0;left=0;bottom=0;right=0;align=left;spacingLeft=6;overflow=hidden;" vertex="1" parent="1">
          <mxGeometry x="550" y="270" width="150" height="30" as="geometry">
            <mxRectangle width="150" height="30" as="alternateBounds" />
          </mxGeometry>
        </mxCell>
        <mxCell id="O3Fq_bBczwcsNeZgr58u-38" value="FK" style="text;html=1;strokeColor=none;fillColor=none;align=center;verticalAlign=middle;whiteSpace=wrap;rounded=0;fontFamily=Times New Roman;fontSize=15;" vertex="1" parent="1">
          <mxGeometry x="507" y="240" width="60" height="30" as="geometry" />
        </mxCell>
        <mxCell id="O3Fq_bBczwcsNeZgr58u-39" value="FK" style="text;html=1;strokeColor=none;fillColor=none;align=center;verticalAlign=middle;whiteSpace=wrap;rounded=0;fontFamily=Times New Roman;fontSize=15;" vertex="1" parent="1">
          <mxGeometry x="507" y="270" width="60" height="30" as="geometry" />
        </mxCell>
        <mxCell id="O3Fq_bBczwcsNeZgr58u-41" value="&lt;h4&gt;&lt;font style=&quot;font-size: 15px;&quot; face=&quot;Times New Roman&quot;&gt;EXERC 2&lt;/font&gt;&lt;/h4&gt;" style="text;html=1;strokeColor=none;fillColor=none;align=center;verticalAlign=middle;whiteSpace=wrap;rounded=0;" vertex="1" parent="1">
          <mxGeometry x="10" y="360" width="70" height="40" as="geometry" />
        </mxCell>
        <mxCell id="O3Fq_bBczwcsNeZgr58u-42" value="Medicos" style="shape=table;startSize=30;container=1;collapsible=1;childLayout=tableLayout;fixedRows=1;rowLines=0;fontStyle=1;align=center;resizeLast=1;fontFamily=Times New Roman;fontSize=15;fillColor=#d0cee2;strokeColor=#56517e;" vertex="1" parent="1">
          <mxGeometry x="50" y="420" width="180" height="270" as="geometry">
            <mxRectangle x="80" y="420" width="90" height="30" as="alternateBounds" />
          </mxGeometry>
        </mxCell>
        <mxCell id="O3Fq_bBczwcsNeZgr58u-43" value="" style="shape=tableRow;horizontal=0;startSize=0;swimlaneHead=0;swimlaneBody=0;fillColor=none;collapsible=0;dropTarget=0;points=[[0,0.5],[1,0.5]];portConstraint=eastwest;top=0;left=0;right=0;bottom=1;fontFamily=Times New Roman;fontSize=15;" vertex="1" parent="O3Fq_bBczwcsNeZgr58u-42">
          <mxGeometry y="30" width="180" height="30" as="geometry" />
        </mxCell>
        <mxCell id="O3Fq_bBczwcsNeZgr58u-44" value="PK" style="shape=partialRectangle;connectable=0;fillColor=none;top=0;left=0;bottom=0;right=0;fontStyle=1;overflow=hidden;fontFamily=Times New Roman;fontSize=15;" vertex="1" parent="O3Fq_bBczwcsNeZgr58u-43">
          <mxGeometry width="30" height="30" as="geometry">
            <mxRectangle width="30" height="30" as="alternateBounds" />
          </mxGeometry>
        </mxCell>
        <mxCell id="O3Fq_bBczwcsNeZgr58u-45" value="Id" style="shape=partialRectangle;connectable=0;fillColor=none;top=0;left=0;bottom=0;right=0;align=left;spacingLeft=6;fontStyle=5;overflow=hidden;fontFamily=Times New Roman;fontSize=15;" vertex="1" parent="O3Fq_bBczwcsNeZgr58u-43">
          <mxGeometry x="30" width="150" height="30" as="geometry">
            <mxRectangle width="150" height="30" as="alternateBounds" />
          </mxGeometry>
        </mxCell>
        <mxCell id="O3Fq_bBczwcsNeZgr58u-46" value="" style="shape=tableRow;horizontal=0;startSize=0;swimlaneHead=0;swimlaneBody=0;fillColor=none;collapsible=0;dropTarget=0;points=[[0,0.5],[1,0.5]];portConstraint=eastwest;top=0;left=0;right=0;bottom=0;fontFamily=Times New Roman;fontSize=15;" vertex="1" parent="O3Fq_bBczwcsNeZgr58u-42">
          <mxGeometry y="60" width="180" height="30" as="geometry" />
        </mxCell>
        <mxCell id="O3Fq_bBczwcsNeZgr58u-47" value="" style="shape=partialRectangle;connectable=0;fillColor=none;top=0;left=0;bottom=0;right=0;editable=1;overflow=hidden;fontFamily=Times New Roman;fontSize=15;" vertex="1" parent="O3Fq_bBczwcsNeZgr58u-46">
          <mxGeometry width="30" height="30" as="geometry">
            <mxRectangle width="30" height="30" as="alternateBounds" />
          </mxGeometry>
        </mxCell>
        <mxCell id="O3Fq_bBczwcsNeZgr58u-48" value="Nome" style="shape=partialRectangle;connectable=0;fillColor=none;top=0;left=0;bottom=0;right=0;align=left;spacingLeft=6;overflow=hidden;fontFamily=Times New Roman;fontSize=15;" vertex="1" parent="O3Fq_bBczwcsNeZgr58u-46">
          <mxGeometry x="30" width="150" height="30" as="geometry">
            <mxRectangle width="150" height="30" as="alternateBounds" />
          </mxGeometry>
        </mxCell>
        <mxCell id="O3Fq_bBczwcsNeZgr58u-49" value="" style="shape=tableRow;horizontal=0;startSize=0;swimlaneHead=0;swimlaneBody=0;fillColor=none;collapsible=0;dropTarget=0;points=[[0,0.5],[1,0.5]];portConstraint=eastwest;top=0;left=0;right=0;bottom=0;fontFamily=Times New Roman;fontSize=15;" vertex="1" parent="O3Fq_bBczwcsNeZgr58u-42">
          <mxGeometry y="90" width="180" height="30" as="geometry" />
        </mxCell>
        <mxCell id="O3Fq_bBczwcsNeZgr58u-50" value="" style="shape=partialRectangle;connectable=0;fillColor=none;top=0;left=0;bottom=0;right=0;editable=1;overflow=hidden;fontFamily=Times New Roman;fontSize=15;" vertex="1" parent="O3Fq_bBczwcsNeZgr58u-49">
          <mxGeometry width="30" height="30" as="geometry">
            <mxRectangle width="30" height="30" as="alternateBounds" />
          </mxGeometry>
        </mxCell>
        <mxCell id="O3Fq_bBczwcsNeZgr58u-51" value="DataNascimento" style="shape=partialRectangle;connectable=0;fillColor=none;top=0;left=0;bottom=0;right=0;align=left;spacingLeft=6;overflow=hidden;fontFamily=Times New Roman;fontSize=15;" vertex="1" parent="O3Fq_bBczwcsNeZgr58u-49">
          <mxGeometry x="30" width="150" height="30" as="geometry">
            <mxRectangle width="150" height="30" as="alternateBounds" />
          </mxGeometry>
        </mxCell>
        <mxCell id="O3Fq_bBczwcsNeZgr58u-52" value="" style="shape=tableRow;horizontal=0;startSize=0;swimlaneHead=0;swimlaneBody=0;fillColor=none;collapsible=0;dropTarget=0;points=[[0,0.5],[1,0.5]];portConstraint=eastwest;top=0;left=0;right=0;bottom=0;fontFamily=Times New Roman;fontSize=15;" vertex="1" parent="O3Fq_bBczwcsNeZgr58u-42">
          <mxGeometry y="120" width="180" height="150" as="geometry" />
        </mxCell>
        <mxCell id="O3Fq_bBczwcsNeZgr58u-53" value="" style="shape=partialRectangle;connectable=0;fillColor=none;top=0;left=0;bottom=0;right=0;editable=1;overflow=hidden;fontFamily=Times New Roman;fontSize=15;" vertex="1" parent="O3Fq_bBczwcsNeZgr58u-52">
          <mxGeometry width="30" height="150" as="geometry">
            <mxRectangle width="30" height="150" as="alternateBounds" />
          </mxGeometry>
        </mxCell>
        <mxCell id="O3Fq_bBczwcsNeZgr58u-54" value="" style="shape=partialRectangle;connectable=0;fillColor=none;top=0;left=0;bottom=0;right=0;align=left;spacingLeft=6;overflow=hidden;fontFamily=Times New Roman;fontSize=15;" vertex="1" parent="O3Fq_bBczwcsNeZgr58u-52">
          <mxGeometry x="30" width="150" height="150" as="geometry">
            <mxRectangle width="150" height="150" as="alternateBounds" />
          </mxGeometry>
        </mxCell>
        <mxCell id="O3Fq_bBczwcsNeZgr58u-55" value="Especialidade" style="shape=partialRectangle;connectable=0;fillColor=none;top=0;left=0;bottom=0;right=0;align=left;spacingLeft=6;overflow=hidden;fontFamily=Times New Roman;fontSize=15;" vertex="1" parent="1">
          <mxGeometry x="80" y="540" width="150" height="30" as="geometry">
            <mxRectangle width="150" height="30" as="alternateBounds" />
          </mxGeometry>
        </mxCell>
        <mxCell id="O3Fq_bBczwcsNeZgr58u-56" value="Morada" style="shape=partialRectangle;connectable=0;fillColor=none;top=0;left=0;bottom=0;right=0;align=left;spacingLeft=6;overflow=hidden;fontFamily=Times New Roman;fontSize=15;" vertex="1" parent="1">
          <mxGeometry x="80" y="570" width="150" height="30" as="geometry">
            <mxRectangle width="150" height="30" as="alternateBounds" />
          </mxGeometry>
        </mxCell>
        <mxCell id="O3Fq_bBczwcsNeZgr58u-57" value="CodigoPostal" style="shape=partialRectangle;connectable=0;fillColor=none;top=0;left=0;bottom=0;right=0;align=left;spacingLeft=6;overflow=hidden;fontFamily=Times New Roman;fontSize=15;" vertex="1" parent="1">
          <mxGeometry x="80" y="600" width="150" height="30" as="geometry">
            <mxRectangle width="150" height="30" as="alternateBounds" />
          </mxGeometry>
        </mxCell>
        <mxCell id="O3Fq_bBczwcsNeZgr58u-58" value="Especialidade" style="shape=table;startSize=30;container=1;collapsible=1;childLayout=tableLayout;fixedRows=1;rowLines=0;fontStyle=1;align=center;resizeLast=1;fontFamily=Times New Roman;fontSize=15;fillColor=#d0cee2;strokeColor=#56517e;" vertex="1" parent="1">
          <mxGeometry x="567" y="380" width="180" height="150" as="geometry" />
        </mxCell>
        <mxCell id="O3Fq_bBczwcsNeZgr58u-59" value="" style="shape=tableRow;horizontal=0;startSize=0;swimlaneHead=0;swimlaneBody=0;fillColor=none;collapsible=0;dropTarget=0;points=[[0,0.5],[1,0.5]];portConstraint=eastwest;top=0;left=0;right=0;bottom=1;fontFamily=Times New Roman;fontSize=15;" vertex="1" parent="O3Fq_bBczwcsNeZgr58u-58">
          <mxGeometry y="30" width="180" height="30" as="geometry" />
        </mxCell>
        <mxCell id="O3Fq_bBczwcsNeZgr58u-60" value="PK" style="shape=partialRectangle;connectable=0;fillColor=none;top=0;left=0;bottom=0;right=0;fontStyle=1;overflow=hidden;fontFamily=Times New Roman;fontSize=15;" vertex="1" parent="O3Fq_bBczwcsNeZgr58u-59">
          <mxGeometry width="30" height="30" as="geometry">
            <mxRectangle width="30" height="30" as="alternateBounds" />
          </mxGeometry>
        </mxCell>
        <mxCell id="O3Fq_bBczwcsNeZgr58u-61" value="Id" style="shape=partialRectangle;connectable=0;fillColor=none;top=0;left=0;bottom=0;right=0;align=left;spacingLeft=6;fontStyle=5;overflow=hidden;fontFamily=Times New Roman;fontSize=15;" vertex="1" parent="O3Fq_bBczwcsNeZgr58u-59">
          <mxGeometry x="30" width="150" height="30" as="geometry">
            <mxRectangle width="150" height="30" as="alternateBounds" />
          </mxGeometry>
        </mxCell>
        <mxCell id="O3Fq_bBczwcsNeZgr58u-62" value="" style="shape=tableRow;horizontal=0;startSize=0;swimlaneHead=0;swimlaneBody=0;fillColor=none;collapsible=0;dropTarget=0;points=[[0,0.5],[1,0.5]];portConstraint=eastwest;top=0;left=0;right=0;bottom=0;fontFamily=Times New Roman;fontSize=15;" vertex="1" parent="O3Fq_bBczwcsNeZgr58u-58">
          <mxGeometry y="60" width="180" height="30" as="geometry" />
        </mxCell>
        <mxCell id="O3Fq_bBczwcsNeZgr58u-63" value="" style="shape=partialRectangle;connectable=0;fillColor=none;top=0;left=0;bottom=0;right=0;editable=1;overflow=hidden;fontFamily=Times New Roman;fontSize=15;" vertex="1" parent="O3Fq_bBczwcsNeZgr58u-62">
          <mxGeometry width="30" height="30" as="geometry">
            <mxRectangle width="30" height="30" as="alternateBounds" />
          </mxGeometry>
        </mxCell>
        <mxCell id="O3Fq_bBczwcsNeZgr58u-64" value="Descricao" style="shape=partialRectangle;connectable=0;fillColor=none;top=0;left=0;bottom=0;right=0;align=left;spacingLeft=6;overflow=hidden;fontFamily=Times New Roman;fontSize=15;" vertex="1" parent="O3Fq_bBczwcsNeZgr58u-62">
          <mxGeometry x="30" width="150" height="30" as="geometry">
            <mxRectangle width="150" height="30" as="alternateBounds" />
          </mxGeometry>
        </mxCell>
        <mxCell id="O3Fq_bBczwcsNeZgr58u-65" value="" style="shape=tableRow;horizontal=0;startSize=0;swimlaneHead=0;swimlaneBody=0;fillColor=none;collapsible=0;dropTarget=0;points=[[0,0.5],[1,0.5]];portConstraint=eastwest;top=0;left=0;right=0;bottom=0;fontFamily=Times New Roman;fontSize=15;" vertex="1" parent="O3Fq_bBczwcsNeZgr58u-58">
          <mxGeometry y="90" width="180" height="30" as="geometry" />
        </mxCell>
        <mxCell id="O3Fq_bBczwcsNeZgr58u-66" value="" style="shape=partialRectangle;connectable=0;fillColor=none;top=0;left=0;bottom=0;right=0;editable=1;overflow=hidden;fontFamily=Times New Roman;fontSize=15;" vertex="1" parent="O3Fq_bBczwcsNeZgr58u-65">
          <mxGeometry width="30" height="30" as="geometry">
            <mxRectangle width="30" height="30" as="alternateBounds" />
          </mxGeometry>
        </mxCell>
        <mxCell id="O3Fq_bBczwcsNeZgr58u-67" value="" style="shape=partialRectangle;connectable=0;fillColor=none;top=0;left=0;bottom=0;right=0;align=left;spacingLeft=6;overflow=hidden;fontFamily=Times New Roman;fontSize=15;" vertex="1" parent="O3Fq_bBczwcsNeZgr58u-65">
          <mxGeometry x="30" width="150" height="30" as="geometry">
            <mxRectangle width="150" height="30" as="alternateBounds" />
          </mxGeometry>
        </mxCell>
        <mxCell id="O3Fq_bBczwcsNeZgr58u-68" value="" style="shape=tableRow;horizontal=0;startSize=0;swimlaneHead=0;swimlaneBody=0;fillColor=none;collapsible=0;dropTarget=0;points=[[0,0.5],[1,0.5]];portConstraint=eastwest;top=0;left=0;right=0;bottom=0;fontFamily=Times New Roman;fontSize=15;" vertex="1" parent="O3Fq_bBczwcsNeZgr58u-58">
          <mxGeometry y="120" width="180" height="30" as="geometry" />
        </mxCell>
        <mxCell id="O3Fq_bBczwcsNeZgr58u-69" value="" style="shape=partialRectangle;connectable=0;fillColor=none;top=0;left=0;bottom=0;right=0;editable=1;overflow=hidden;fontFamily=Times New Roman;fontSize=15;" vertex="1" parent="O3Fq_bBczwcsNeZgr58u-68">
          <mxGeometry width="30" height="30" as="geometry">
            <mxRectangle width="30" height="30" as="alternateBounds" />
          </mxGeometry>
        </mxCell>
        <mxCell id="O3Fq_bBczwcsNeZgr58u-70" value="" style="shape=partialRectangle;connectable=0;fillColor=none;top=0;left=0;bottom=0;right=0;align=left;spacingLeft=6;overflow=hidden;fontFamily=Times New Roman;fontSize=15;" vertex="1" parent="O3Fq_bBczwcsNeZgr58u-68">
          <mxGeometry x="30" width="150" height="30" as="geometry">
            <mxRectangle width="150" height="30" as="alternateBounds" />
          </mxGeometry>
        </mxCell>
        <mxCell id="O3Fq_bBczwcsNeZgr58u-158" style="edgeStyle=orthogonalEdgeStyle;rounded=0;orthogonalLoop=1;jettySize=auto;html=1;entryX=0.008;entryY=0.213;entryDx=0;entryDy=0;entryPerimeter=0;fontFamily=Times New Roman;fontSize=15;" edge="1" parent="1" source="O3Fq_bBczwcsNeZgr58u-71" target="O3Fq_bBczwcsNeZgr58u-109">
          <mxGeometry relative="1" as="geometry" />
        </mxCell>
        <mxCell id="O3Fq_bBczwcsNeZgr58u-167" value="0..1" style="edgeLabel;html=1;align=center;verticalAlign=middle;resizable=0;points=[];fontSize=15;fontFamily=Times New Roman;" vertex="1" connectable="0" parent="O3Fq_bBczwcsNeZgr58u-158">
          <mxGeometry x="-0.7815" relative="1" as="geometry">
            <mxPoint as="offset" />
          </mxGeometry>
        </mxCell>
        <mxCell id="O3Fq_bBczwcsNeZgr58u-168" value="0..*" style="edgeLabel;html=1;align=center;verticalAlign=middle;resizable=0;points=[];fontSize=15;fontFamily=Times New Roman;" vertex="1" connectable="0" parent="O3Fq_bBczwcsNeZgr58u-158">
          <mxGeometry x="0.8375" y="-2" relative="1" as="geometry">
            <mxPoint x="3" y="-2" as="offset" />
          </mxGeometry>
        </mxCell>
        <mxCell id="O3Fq_bBczwcsNeZgr58u-71" value="Paciente" style="shape=table;startSize=30;container=1;collapsible=1;childLayout=tableLayout;fixedRows=1;rowLines=0;fontStyle=1;align=center;resizeLast=1;fontFamily=Times New Roman;fontSize=15;fillColor=#d0cee2;strokeColor=#56517e;" vertex="1" parent="1">
          <mxGeometry x="50" y="730" width="180" height="180" as="geometry" />
        </mxCell>
        <mxCell id="O3Fq_bBczwcsNeZgr58u-72" value="" style="shape=tableRow;horizontal=0;startSize=0;swimlaneHead=0;swimlaneBody=0;fillColor=none;collapsible=0;dropTarget=0;points=[[0,0.5],[1,0.5]];portConstraint=eastwest;top=0;left=0;right=0;bottom=1;fontFamily=Times New Roman;fontSize=15;" vertex="1" parent="O3Fq_bBczwcsNeZgr58u-71">
          <mxGeometry y="30" width="180" height="30" as="geometry" />
        </mxCell>
        <mxCell id="O3Fq_bBczwcsNeZgr58u-73" value="PK" style="shape=partialRectangle;connectable=0;fillColor=none;top=0;left=0;bottom=0;right=0;fontStyle=1;overflow=hidden;fontFamily=Times New Roman;fontSize=15;" vertex="1" parent="O3Fq_bBczwcsNeZgr58u-72">
          <mxGeometry width="30" height="30" as="geometry">
            <mxRectangle width="30" height="30" as="alternateBounds" />
          </mxGeometry>
        </mxCell>
        <mxCell id="O3Fq_bBczwcsNeZgr58u-74" value="Id" style="shape=partialRectangle;connectable=0;fillColor=none;top=0;left=0;bottom=0;right=0;align=left;spacingLeft=6;fontStyle=5;overflow=hidden;fontFamily=Times New Roman;fontSize=15;" vertex="1" parent="O3Fq_bBczwcsNeZgr58u-72">
          <mxGeometry x="30" width="150" height="30" as="geometry">
            <mxRectangle width="150" height="30" as="alternateBounds" />
          </mxGeometry>
        </mxCell>
        <mxCell id="O3Fq_bBczwcsNeZgr58u-75" value="" style="shape=tableRow;horizontal=0;startSize=0;swimlaneHead=0;swimlaneBody=0;fillColor=none;collapsible=0;dropTarget=0;points=[[0,0.5],[1,0.5]];portConstraint=eastwest;top=0;left=0;right=0;bottom=0;fontFamily=Times New Roman;fontSize=15;" vertex="1" parent="O3Fq_bBczwcsNeZgr58u-71">
          <mxGeometry y="60" width="180" height="30" as="geometry" />
        </mxCell>
        <mxCell id="O3Fq_bBczwcsNeZgr58u-76" value="" style="shape=partialRectangle;connectable=0;fillColor=none;top=0;left=0;bottom=0;right=0;editable=1;overflow=hidden;fontFamily=Times New Roman;fontSize=15;" vertex="1" parent="O3Fq_bBczwcsNeZgr58u-75">
          <mxGeometry width="30" height="30" as="geometry">
            <mxRectangle width="30" height="30" as="alternateBounds" />
          </mxGeometry>
        </mxCell>
        <mxCell id="O3Fq_bBczwcsNeZgr58u-77" value="Nome" style="shape=partialRectangle;connectable=0;fillColor=none;top=0;left=0;bottom=0;right=0;align=left;spacingLeft=6;overflow=hidden;fontFamily=Times New Roman;fontSize=15;" vertex="1" parent="O3Fq_bBczwcsNeZgr58u-75">
          <mxGeometry x="30" width="150" height="30" as="geometry">
            <mxRectangle width="150" height="30" as="alternateBounds" />
          </mxGeometry>
        </mxCell>
        <mxCell id="O3Fq_bBczwcsNeZgr58u-78" value="" style="shape=tableRow;horizontal=0;startSize=0;swimlaneHead=0;swimlaneBody=0;fillColor=none;collapsible=0;dropTarget=0;points=[[0,0.5],[1,0.5]];portConstraint=eastwest;top=0;left=0;right=0;bottom=0;fontFamily=Times New Roman;fontSize=15;" vertex="1" parent="O3Fq_bBczwcsNeZgr58u-71">
          <mxGeometry y="90" width="180" height="30" as="geometry" />
        </mxCell>
        <mxCell id="O3Fq_bBczwcsNeZgr58u-79" value="" style="shape=partialRectangle;connectable=0;fillColor=none;top=0;left=0;bottom=0;right=0;editable=1;overflow=hidden;fontFamily=Times New Roman;fontSize=15;" vertex="1" parent="O3Fq_bBczwcsNeZgr58u-78">
          <mxGeometry width="30" height="30" as="geometry">
            <mxRectangle width="30" height="30" as="alternateBounds" />
          </mxGeometry>
        </mxCell>
        <mxCell id="O3Fq_bBczwcsNeZgr58u-80" value="DataNascimento" style="shape=partialRectangle;connectable=0;fillColor=none;top=0;left=0;bottom=0;right=0;align=left;spacingLeft=6;overflow=hidden;fontFamily=Times New Roman;fontSize=15;" vertex="1" parent="O3Fq_bBczwcsNeZgr58u-78">
          <mxGeometry x="30" width="150" height="30" as="geometry">
            <mxRectangle width="150" height="30" as="alternateBounds" />
          </mxGeometry>
        </mxCell>
        <mxCell id="O3Fq_bBczwcsNeZgr58u-81" value="" style="shape=tableRow;horizontal=0;startSize=0;swimlaneHead=0;swimlaneBody=0;fillColor=none;collapsible=0;dropTarget=0;points=[[0,0.5],[1,0.5]];portConstraint=eastwest;top=0;left=0;right=0;bottom=0;fontFamily=Times New Roman;fontSize=15;" vertex="1" parent="O3Fq_bBczwcsNeZgr58u-71">
          <mxGeometry y="120" width="180" height="60" as="geometry" />
        </mxCell>
        <mxCell id="O3Fq_bBczwcsNeZgr58u-82" value="" style="shape=partialRectangle;connectable=0;fillColor=none;top=0;left=0;bottom=0;right=0;editable=1;overflow=hidden;fontFamily=Times New Roman;fontSize=15;" vertex="1" parent="O3Fq_bBczwcsNeZgr58u-81">
          <mxGeometry width="30" height="60" as="geometry">
            <mxRectangle width="30" height="60" as="alternateBounds" />
          </mxGeometry>
        </mxCell>
        <mxCell id="O3Fq_bBczwcsNeZgr58u-83" value="" style="shape=partialRectangle;connectable=0;fillColor=none;top=0;left=0;bottom=0;right=0;align=left;spacingLeft=6;overflow=hidden;fontFamily=Times New Roman;fontSize=15;" vertex="1" parent="O3Fq_bBczwcsNeZgr58u-81">
          <mxGeometry x="30" width="150" height="60" as="geometry">
            <mxRectangle width="150" height="60" as="alternateBounds" />
          </mxGeometry>
        </mxCell>
        <mxCell id="O3Fq_bBczwcsNeZgr58u-84" value="Morada" style="shape=partialRectangle;connectable=0;fillColor=none;top=0;left=0;bottom=0;right=0;align=left;spacingLeft=6;overflow=hidden;fontFamily=Times New Roman;fontSize=15;" vertex="1" parent="1">
          <mxGeometry x="80" y="850" width="150" height="30" as="geometry">
            <mxRectangle width="150" height="30" as="alternateBounds" />
          </mxGeometry>
        </mxCell>
        <mxCell id="O3Fq_bBczwcsNeZgr58u-85" value="CodigoPostal" style="shape=partialRectangle;connectable=0;fillColor=none;top=0;left=0;bottom=0;right=0;align=left;spacingLeft=6;overflow=hidden;fontFamily=Times New Roman;fontSize=15;" vertex="1" parent="1">
          <mxGeometry x="80" y="880" width="150" height="30" as="geometry">
            <mxRectangle width="150" height="30" as="alternateBounds" />
          </mxGeometry>
        </mxCell>
        <mxCell id="O3Fq_bBczwcsNeZgr58u-86" value="Codigo Postal" style="shape=table;startSize=30;container=1;collapsible=1;childLayout=tableLayout;fixedRows=1;rowLines=0;fontStyle=1;align=center;resizeLast=1;fontFamily=Times New Roman;fontSize=15;fillColor=#d0cee2;strokeColor=#56517e;" vertex="1" parent="1">
          <mxGeometry x="567" y="602" width="180" height="150" as="geometry" />
        </mxCell>
        <mxCell id="O3Fq_bBczwcsNeZgr58u-87" value="" style="shape=tableRow;horizontal=0;startSize=0;swimlaneHead=0;swimlaneBody=0;fillColor=none;collapsible=0;dropTarget=0;points=[[0,0.5],[1,0.5]];portConstraint=eastwest;top=0;left=0;right=0;bottom=1;fontFamily=Times New Roman;fontSize=15;" vertex="1" parent="O3Fq_bBczwcsNeZgr58u-86">
          <mxGeometry y="30" width="180" height="30" as="geometry" />
        </mxCell>
        <mxCell id="O3Fq_bBczwcsNeZgr58u-88" value="PK" style="shape=partialRectangle;connectable=0;fillColor=none;top=0;left=0;bottom=0;right=0;fontStyle=1;overflow=hidden;fontFamily=Times New Roman;fontSize=15;" vertex="1" parent="O3Fq_bBczwcsNeZgr58u-87">
          <mxGeometry width="30" height="30" as="geometry">
            <mxRectangle width="30" height="30" as="alternateBounds" />
          </mxGeometry>
        </mxCell>
        <mxCell id="O3Fq_bBczwcsNeZgr58u-89" value="Id" style="shape=partialRectangle;connectable=0;fillColor=none;top=0;left=0;bottom=0;right=0;align=left;spacingLeft=6;fontStyle=5;overflow=hidden;fontFamily=Times New Roman;fontSize=15;" vertex="1" parent="O3Fq_bBczwcsNeZgr58u-87">
          <mxGeometry x="30" width="150" height="30" as="geometry">
            <mxRectangle width="150" height="30" as="alternateBounds" />
          </mxGeometry>
        </mxCell>
        <mxCell id="O3Fq_bBczwcsNeZgr58u-90" value="" style="shape=tableRow;horizontal=0;startSize=0;swimlaneHead=0;swimlaneBody=0;fillColor=none;collapsible=0;dropTarget=0;points=[[0,0.5],[1,0.5]];portConstraint=eastwest;top=0;left=0;right=0;bottom=0;fontFamily=Times New Roman;fontSize=15;" vertex="1" parent="O3Fq_bBczwcsNeZgr58u-86">
          <mxGeometry y="60" width="180" height="30" as="geometry" />
        </mxCell>
        <mxCell id="O3Fq_bBczwcsNeZgr58u-91" value="" style="shape=partialRectangle;connectable=0;fillColor=none;top=0;left=0;bottom=0;right=0;editable=1;overflow=hidden;fontFamily=Times New Roman;fontSize=15;" vertex="1" parent="O3Fq_bBczwcsNeZgr58u-90">
          <mxGeometry width="30" height="30" as="geometry">
            <mxRectangle width="30" height="30" as="alternateBounds" />
          </mxGeometry>
        </mxCell>
        <mxCell id="O3Fq_bBczwcsNeZgr58u-92" value="Localidade" style="shape=partialRectangle;connectable=0;fillColor=none;top=0;left=0;bottom=0;right=0;align=left;spacingLeft=6;overflow=hidden;fontFamily=Times New Roman;fontSize=15;" vertex="1" parent="O3Fq_bBczwcsNeZgr58u-90">
          <mxGeometry x="30" width="150" height="30" as="geometry">
            <mxRectangle width="150" height="30" as="alternateBounds" />
          </mxGeometry>
        </mxCell>
        <mxCell id="O3Fq_bBczwcsNeZgr58u-93" value="" style="shape=tableRow;horizontal=0;startSize=0;swimlaneHead=0;swimlaneBody=0;fillColor=none;collapsible=0;dropTarget=0;points=[[0,0.5],[1,0.5]];portConstraint=eastwest;top=0;left=0;right=0;bottom=0;fontFamily=Times New Roman;fontSize=15;" vertex="1" parent="O3Fq_bBczwcsNeZgr58u-86">
          <mxGeometry y="90" width="180" height="30" as="geometry" />
        </mxCell>
        <mxCell id="O3Fq_bBczwcsNeZgr58u-94" value="" style="shape=partialRectangle;connectable=0;fillColor=none;top=0;left=0;bottom=0;right=0;editable=1;overflow=hidden;fontFamily=Times New Roman;fontSize=15;" vertex="1" parent="O3Fq_bBczwcsNeZgr58u-93">
          <mxGeometry width="30" height="30" as="geometry">
            <mxRectangle width="30" height="30" as="alternateBounds" />
          </mxGeometry>
        </mxCell>
        <mxCell id="O3Fq_bBczwcsNeZgr58u-95" value="" style="shape=partialRectangle;connectable=0;fillColor=none;top=0;left=0;bottom=0;right=0;align=left;spacingLeft=6;overflow=hidden;fontFamily=Times New Roman;fontSize=15;" vertex="1" parent="O3Fq_bBczwcsNeZgr58u-93">
          <mxGeometry x="30" width="150" height="30" as="geometry">
            <mxRectangle width="150" height="30" as="alternateBounds" />
          </mxGeometry>
        </mxCell>
        <mxCell id="O3Fq_bBczwcsNeZgr58u-96" value="" style="shape=tableRow;horizontal=0;startSize=0;swimlaneHead=0;swimlaneBody=0;fillColor=none;collapsible=0;dropTarget=0;points=[[0,0.5],[1,0.5]];portConstraint=eastwest;top=0;left=0;right=0;bottom=0;fontFamily=Times New Roman;fontSize=15;" vertex="1" parent="O3Fq_bBczwcsNeZgr58u-86">
          <mxGeometry y="120" width="180" height="30" as="geometry" />
        </mxCell>
        <mxCell id="O3Fq_bBczwcsNeZgr58u-97" value="" style="shape=partialRectangle;connectable=0;fillColor=none;top=0;left=0;bottom=0;right=0;editable=1;overflow=hidden;fontFamily=Times New Roman;fontSize=15;" vertex="1" parent="O3Fq_bBczwcsNeZgr58u-96">
          <mxGeometry width="30" height="30" as="geometry">
            <mxRectangle width="30" height="30" as="alternateBounds" />
          </mxGeometry>
        </mxCell>
        <mxCell id="O3Fq_bBczwcsNeZgr58u-98" value="" style="shape=partialRectangle;connectable=0;fillColor=none;top=0;left=0;bottom=0;right=0;align=left;spacingLeft=6;overflow=hidden;fontFamily=Times New Roman;fontSize=15;" vertex="1" parent="O3Fq_bBczwcsNeZgr58u-96">
          <mxGeometry x="30" width="150" height="30" as="geometry">
            <mxRectangle width="150" height="30" as="alternateBounds" />
          </mxGeometry>
        </mxCell>
        <mxCell id="O3Fq_bBczwcsNeZgr58u-99" value="Consulta" style="shape=table;startSize=30;container=1;collapsible=1;childLayout=tableLayout;fixedRows=1;rowLines=0;fontStyle=1;align=center;resizeLast=1;fontFamily=Times New Roman;fontSize=15;fillColor=#d0cee2;strokeColor=#56517e;" vertex="1" parent="1">
          <mxGeometry x="567" y="811" width="180" height="150" as="geometry" />
        </mxCell>
        <mxCell id="O3Fq_bBczwcsNeZgr58u-100" value="" style="shape=tableRow;horizontal=0;startSize=0;swimlaneHead=0;swimlaneBody=0;fillColor=none;collapsible=0;dropTarget=0;points=[[0,0.5],[1,0.5]];portConstraint=eastwest;top=0;left=0;right=0;bottom=1;fontFamily=Times New Roman;fontSize=15;" vertex="1" parent="O3Fq_bBczwcsNeZgr58u-99">
          <mxGeometry y="30" width="180" height="30" as="geometry" />
        </mxCell>
        <mxCell id="O3Fq_bBczwcsNeZgr58u-101" value="PK" style="shape=partialRectangle;connectable=0;fillColor=none;top=0;left=0;bottom=0;right=0;fontStyle=1;overflow=hidden;fontFamily=Times New Roman;fontSize=15;" vertex="1" parent="O3Fq_bBczwcsNeZgr58u-100">
          <mxGeometry width="30" height="30" as="geometry">
            <mxRectangle width="30" height="30" as="alternateBounds" />
          </mxGeometry>
        </mxCell>
        <mxCell id="O3Fq_bBczwcsNeZgr58u-102" value="Id" style="shape=partialRectangle;connectable=0;fillColor=none;top=0;left=0;bottom=0;right=0;align=left;spacingLeft=6;fontStyle=5;overflow=hidden;fontFamily=Times New Roman;fontSize=15;" vertex="1" parent="O3Fq_bBczwcsNeZgr58u-100">
          <mxGeometry x="30" width="150" height="30" as="geometry">
            <mxRectangle width="150" height="30" as="alternateBounds" />
          </mxGeometry>
        </mxCell>
        <mxCell id="O3Fq_bBczwcsNeZgr58u-103" value="" style="shape=tableRow;horizontal=0;startSize=0;swimlaneHead=0;swimlaneBody=0;fillColor=none;collapsible=0;dropTarget=0;points=[[0,0.5],[1,0.5]];portConstraint=eastwest;top=0;left=0;right=0;bottom=0;fontFamily=Times New Roman;fontSize=15;" vertex="1" parent="O3Fq_bBczwcsNeZgr58u-99">
          <mxGeometry y="60" width="180" height="30" as="geometry" />
        </mxCell>
        <mxCell id="O3Fq_bBczwcsNeZgr58u-104" value="" style="shape=partialRectangle;connectable=0;fillColor=none;top=0;left=0;bottom=0;right=0;editable=1;overflow=hidden;fontFamily=Times New Roman;fontSize=15;" vertex="1" parent="O3Fq_bBczwcsNeZgr58u-103">
          <mxGeometry width="30" height="30" as="geometry">
            <mxRectangle width="30" height="30" as="alternateBounds" />
          </mxGeometry>
        </mxCell>
        <mxCell id="O3Fq_bBczwcsNeZgr58u-105" value="Data" style="shape=partialRectangle;connectable=0;fillColor=none;top=0;left=0;bottom=0;right=0;align=left;spacingLeft=6;overflow=hidden;fontFamily=Times New Roman;fontSize=15;" vertex="1" parent="O3Fq_bBczwcsNeZgr58u-103">
          <mxGeometry x="30" width="150" height="30" as="geometry">
            <mxRectangle width="150" height="30" as="alternateBounds" />
          </mxGeometry>
        </mxCell>
        <mxCell id="O3Fq_bBczwcsNeZgr58u-106" value="" style="shape=tableRow;horizontal=0;startSize=0;swimlaneHead=0;swimlaneBody=0;fillColor=none;collapsible=0;dropTarget=0;points=[[0,0.5],[1,0.5]];portConstraint=eastwest;top=0;left=0;right=0;bottom=0;fontFamily=Times New Roman;fontSize=15;" vertex="1" parent="O3Fq_bBczwcsNeZgr58u-99">
          <mxGeometry y="90" width="180" height="30" as="geometry" />
        </mxCell>
        <mxCell id="O3Fq_bBczwcsNeZgr58u-107" value="" style="shape=partialRectangle;connectable=0;fillColor=none;top=0;left=0;bottom=0;right=0;editable=1;overflow=hidden;fontFamily=Times New Roman;fontSize=15;" vertex="1" parent="O3Fq_bBczwcsNeZgr58u-106">
          <mxGeometry width="30" height="30" as="geometry">
            <mxRectangle width="30" height="30" as="alternateBounds" />
          </mxGeometry>
        </mxCell>
        <mxCell id="O3Fq_bBczwcsNeZgr58u-108" value="Medico" style="shape=partialRectangle;connectable=0;fillColor=none;top=0;left=0;bottom=0;right=0;align=left;spacingLeft=6;overflow=hidden;fontFamily=Times New Roman;fontSize=15;" vertex="1" parent="O3Fq_bBczwcsNeZgr58u-106">
          <mxGeometry x="30" width="150" height="30" as="geometry">
            <mxRectangle width="150" height="30" as="alternateBounds" />
          </mxGeometry>
        </mxCell>
        <mxCell id="O3Fq_bBczwcsNeZgr58u-109" value="" style="shape=tableRow;horizontal=0;startSize=0;swimlaneHead=0;swimlaneBody=0;fillColor=none;collapsible=0;dropTarget=0;points=[[0,0.5],[1,0.5]];portConstraint=eastwest;top=0;left=0;right=0;bottom=0;fontFamily=Times New Roman;fontSize=15;" vertex="1" parent="O3Fq_bBczwcsNeZgr58u-99">
          <mxGeometry y="120" width="180" height="30" as="geometry" />
        </mxCell>
        <mxCell id="O3Fq_bBczwcsNeZgr58u-110" value="" style="shape=partialRectangle;connectable=0;fillColor=none;top=0;left=0;bottom=0;right=0;editable=1;overflow=hidden;fontFamily=Times New Roman;fontSize=15;" vertex="1" parent="O3Fq_bBczwcsNeZgr58u-109">
          <mxGeometry width="30" height="30" as="geometry">
            <mxRectangle width="30" height="30" as="alternateBounds" />
          </mxGeometry>
        </mxCell>
        <mxCell id="O3Fq_bBczwcsNeZgr58u-111" value="Paciente" style="shape=partialRectangle;connectable=0;fillColor=none;top=0;left=0;bottom=0;right=0;align=left;spacingLeft=6;overflow=hidden;fontFamily=Times New Roman;fontSize=15;" vertex="1" parent="O3Fq_bBczwcsNeZgr58u-109">
          <mxGeometry x="30" width="150" height="30" as="geometry">
            <mxRectangle width="150" height="30" as="alternateBounds" />
          </mxGeometry>
        </mxCell>
        <mxCell id="O3Fq_bBczwcsNeZgr58u-112" value="FK" style="text;html=1;strokeColor=none;fillColor=none;align=center;verticalAlign=middle;whiteSpace=wrap;rounded=0;fontFamily=Times New Roman;fontSize=15;" vertex="1" parent="1">
          <mxGeometry x="36" y="883" width="60" height="30" as="geometry" />
        </mxCell>
        <mxCell id="O3Fq_bBczwcsNeZgr58u-113" value="FK" style="text;html=1;strokeColor=none;fillColor=none;align=center;verticalAlign=middle;whiteSpace=wrap;rounded=0;fontFamily=Times New Roman;fontSize=15;" vertex="1" parent="1">
          <mxGeometry x="565" y="871" width="60" height="30" as="geometry" />
        </mxCell>
        <mxCell id="O3Fq_bBczwcsNeZgr58u-114" value="FK" style="text;html=1;strokeColor=none;fillColor=none;align=center;verticalAlign=middle;whiteSpace=wrap;rounded=0;fontFamily=Times New Roman;fontSize=15;" vertex="1" parent="1">
          <mxGeometry x="565" y="900" width="60" height="30" as="geometry" />
        </mxCell>
        <mxCell id="O3Fq_bBczwcsNeZgr58u-115" value="FK" style="text;html=1;strokeColor=none;fillColor=none;align=center;verticalAlign=middle;whiteSpace=wrap;rounded=0;fontFamily=Times New Roman;fontSize=15;" vertex="1" parent="1">
          <mxGeometry x="36" y="602" width="60" height="30" as="geometry" />
        </mxCell>
        <mxCell id="O3Fq_bBczwcsNeZgr58u-116" value="FK" style="text;html=1;strokeColor=none;fillColor=none;align=center;verticalAlign=middle;whiteSpace=wrap;rounded=0;fontFamily=Times New Roman;fontSize=15;" vertex="1" parent="1">
          <mxGeometry x="36" y="540" width="60" height="30" as="geometry" />
        </mxCell>
        <mxCell id="O3Fq_bBczwcsNeZgr58u-150" style="edgeStyle=orthogonalEdgeStyle;rounded=0;orthogonalLoop=1;jettySize=auto;html=1;fontFamily=Times New Roman;fontSize=15;entryX=0;entryY=0.5;entryDx=0;entryDy=0;" edge="1" parent="1" source="O3Fq_bBczwcsNeZgr58u-43" target="O3Fq_bBczwcsNeZgr58u-65">
          <mxGeometry relative="1" as="geometry">
            <mxPoint x="480" y="465" as="targetPoint" />
          </mxGeometry>
        </mxCell>
        <mxCell id="O3Fq_bBczwcsNeZgr58u-159" value="0..*" style="edgeLabel;html=1;align=center;verticalAlign=middle;resizable=0;points=[];fontSize=15;fontFamily=Times New Roman;" vertex="1" connectable="0" parent="O3Fq_bBczwcsNeZgr58u-150">
          <mxGeometry x="-0.8969" y="1" relative="1" as="geometry">
            <mxPoint as="offset" />
          </mxGeometry>
        </mxCell>
        <mxCell id="O3Fq_bBczwcsNeZgr58u-160" value="0..1" style="edgeLabel;html=1;align=center;verticalAlign=middle;resizable=0;points=[];fontSize=15;fontFamily=Times New Roman;" vertex="1" connectable="0" parent="O3Fq_bBczwcsNeZgr58u-150">
          <mxGeometry x="0.8286" y="-1" relative="1" as="geometry">
            <mxPoint y="-2" as="offset" />
          </mxGeometry>
        </mxCell>
        <mxCell id="O3Fq_bBczwcsNeZgr58u-152" style="edgeStyle=orthogonalEdgeStyle;rounded=0;orthogonalLoop=1;jettySize=auto;html=1;entryX=-0.002;entryY=0.047;entryDx=0;entryDy=0;entryPerimeter=0;fontFamily=Times New Roman;fontSize=15;" edge="1" parent="1" source="O3Fq_bBczwcsNeZgr58u-49" target="O3Fq_bBczwcsNeZgr58u-93">
          <mxGeometry relative="1" as="geometry">
            <Array as="points">
              <mxPoint x="240" y="525" />
              <mxPoint x="240" y="580" />
              <mxPoint x="450" y="580" />
              <mxPoint x="450" y="693" />
            </Array>
          </mxGeometry>
        </mxCell>
        <mxCell id="O3Fq_bBczwcsNeZgr58u-161" value="0..*" style="edgeLabel;html=1;align=center;verticalAlign=middle;resizable=0;points=[];fontSize=15;fontFamily=Times New Roman;" vertex="1" connectable="0" parent="O3Fq_bBczwcsNeZgr58u-152">
          <mxGeometry x="-0.6539" y="-1" relative="1" as="geometry">
            <mxPoint y="-2" as="offset" />
          </mxGeometry>
        </mxCell>
        <mxCell id="O3Fq_bBczwcsNeZgr58u-162" value="0..1" style="edgeLabel;html=1;align=center;verticalAlign=middle;resizable=0;points=[];fontSize=15;fontFamily=Times New Roman;" vertex="1" connectable="0" parent="O3Fq_bBczwcsNeZgr58u-152">
          <mxGeometry x="0.8604" y="1" relative="1" as="geometry">
            <mxPoint y="-1" as="offset" />
          </mxGeometry>
        </mxCell>
        <mxCell id="O3Fq_bBczwcsNeZgr58u-154" style="edgeStyle=orthogonalEdgeStyle;rounded=0;orthogonalLoop=1;jettySize=auto;html=1;entryX=0;entryY=0.5;entryDx=0;entryDy=0;fontFamily=Times New Roman;fontSize=15;" edge="1" parent="1" source="O3Fq_bBczwcsNeZgr58u-75" target="O3Fq_bBczwcsNeZgr58u-96">
          <mxGeometry relative="1" as="geometry">
            <Array as="points">
              <mxPoint x="440" y="805" />
              <mxPoint x="440" y="737" />
            </Array>
          </mxGeometry>
        </mxCell>
        <mxCell id="O3Fq_bBczwcsNeZgr58u-165" value="0..*" style="edgeLabel;html=1;align=center;verticalAlign=middle;resizable=0;points=[];fontSize=15;fontFamily=Times New Roman;" vertex="1" connectable="0" parent="O3Fq_bBczwcsNeZgr58u-154">
          <mxGeometry x="-0.8696" y="1" relative="1" as="geometry">
            <mxPoint as="offset" />
          </mxGeometry>
        </mxCell>
        <mxCell id="O3Fq_bBczwcsNeZgr58u-166" value="0..1" style="edgeLabel;html=1;align=center;verticalAlign=middle;resizable=0;points=[];fontSize=15;fontFamily=Times New Roman;" vertex="1" connectable="0" parent="O3Fq_bBczwcsNeZgr58u-154">
          <mxGeometry x="0.7995" y="1" relative="1" as="geometry">
            <mxPoint x="7" as="offset" />
          </mxGeometry>
        </mxCell>
        <mxCell id="O3Fq_bBczwcsNeZgr58u-157" style="edgeStyle=orthogonalEdgeStyle;rounded=0;orthogonalLoop=1;jettySize=auto;html=1;entryX=0;entryY=0;entryDx=0;entryDy=0;fontFamily=Times New Roman;fontSize=15;" edge="1" parent="1" source="O3Fq_bBczwcsNeZgr58u-52" target="O3Fq_bBczwcsNeZgr58u-113">
          <mxGeometry relative="1" as="geometry">
            <Array as="points">
              <mxPoint x="400" y="660" />
              <mxPoint x="400" y="871" />
            </Array>
          </mxGeometry>
        </mxCell>
        <mxCell id="O3Fq_bBczwcsNeZgr58u-163" value="0..1" style="edgeLabel;html=1;align=center;verticalAlign=middle;resizable=0;points=[];fontSize=15;fontFamily=Times New Roman;" vertex="1" connectable="0" parent="O3Fq_bBczwcsNeZgr58u-157">
          <mxGeometry x="-0.9033" relative="1" as="geometry">
            <mxPoint as="offset" />
          </mxGeometry>
        </mxCell>
        <mxCell id="O3Fq_bBczwcsNeZgr58u-164" value="0..*" style="edgeLabel;html=1;align=center;verticalAlign=middle;resizable=0;points=[];fontSize=15;fontFamily=Times New Roman;" vertex="1" connectable="0" parent="O3Fq_bBczwcsNeZgr58u-157">
          <mxGeometry x="0.8586" y="-1" relative="1" as="geometry">
            <mxPoint x="8" y="-2" as="offset" />
          </mxGeometry>
        </mxCell>
      </root>
    </mxGraphModel>
  </diagram>
</mxfile>
